<svg width="20" height="20" viewBox="0 0 20 20" fill="none" xmlns="http://www.w3.org/2000/svg">
<path d="M14.0202 8.41399C15.8413 8.41399 17.3174 6.93792 17.3174 5.11683C17.3174 3.29674 15.8413 1.81967 14.0202 1.81967" stroke="#A9A9A9" stroke-width="1.5" stroke-linecap="round" stroke-linejoin="round"/>
<path d="M15.5364 11.9972C16.0804 12.0342 16.6205 12.1122 17.1535 12.2302C17.8925 12.3772 18.7826 12.6802 19.0986 13.3432C19.3006 13.7683 19.3006 14.2633 19.0986 14.6883C18.7836 15.3513 17.8925 15.6543 17.1535 15.8064" stroke="#A9A9A9" stroke-width="1.5" stroke-linecap="round" stroke-linejoin="round"/>
<path fill-rule="evenodd" clip-rule="evenodd" d="M7.59137 12.7072C11.2816 12.7072 14.4337 13.2662 14.4337 15.4993C14.4337 17.7334 11.3016 18.3114 7.59137 18.3114C3.90119 18.3114 0.750037 17.7534 0.750037 15.5193C0.750037 13.2852 3.88119 12.7072 7.59137 12.7072Z" stroke="#A9A9A9" stroke-width="1.5" stroke-linecap="round" stroke-linejoin="round"/>
<path fill-rule="evenodd" clip-rule="evenodd" d="M7.5914 9.51946C5.15728 9.51946 3.20719 7.56837 3.20719 5.13425C3.20719 2.70113 5.15728 0.750037 7.5914 0.750037C10.0255 0.750037 11.9766 2.70113 11.9766 5.13425C11.9766 7.56837 10.0255 9.51946 7.5914 9.51946Z" stroke="#A9A9A9" stroke-width="1.5" stroke-linecap="round" stroke-linejoin="round"/>
</svg>
