<svg width="24" height="24" viewBox="0 0 24 24" fill="none" xmlns="http://www.w3.org/2000/svg">
<path fill-rule="evenodd" clip-rule="evenodd" d="M18.2158 2.89195C18.2158 1.29598 19.5118 0 21.1078 0C22.7037 0 23.9997 1.29598 23.9997 2.89195C23.9997 4.48792 22.7037 5.7839 21.1078 5.7839C19.5118 5.7839 18.2158 4.48792 18.2158 2.89195ZM13.5958 15.3109L17.0637 10.8362L17.0157 10.8602C17.2077 10.5962 17.2437 10.2602 17.1117 9.96019C16.9809 9.66019 16.6917 9.45619 16.3809 9.43219C16.0557 9.3962 15.7329 9.54019 15.5397 9.80419L12.637 13.5601L9.31184 10.9442C9.10784 10.7882 8.86784 10.727 8.62785 10.7522C8.38905 10.7882 8.17306 10.919 8.02786 11.111L4.47712 15.7321L4.40392 15.8401C4.19993 16.2229 4.29593 16.7149 4.65592 16.9801C4.82392 17.0881 5.00391 17.1601 5.20791 17.1601C5.4851 17.1721 5.7479 17.0269 5.9159 16.8001L8.92784 12.9229L12.3478 15.4921L12.4558 15.5629C12.8398 15.7669 13.3198 15.6721 13.5958 15.3109ZM16.1397 2.13632C16.0917 2.43632 16.0677 2.73631 16.0677 3.03631C16.0677 5.73626 18.2517 7.91902 20.9396 7.91902C21.2396 7.91902 21.5276 7.88422 21.8276 7.83622V17.5189C21.8276 21.588 19.4277 23.9999 15.3477 23.9999H6.48109C2.39996 23.9999 0 21.588 0 17.5189V8.64021C0 4.56028 2.39996 2.13632 6.48109 2.13632H16.1397Z" fill="#BCBCBC"/>
</svg>
