<svg width="26" height="17" viewBox="0 0 26 17" fill="none" xmlns="http://www.w3.org/2000/svg">
<path fill-rule="evenodd" clip-rule="evenodd" d="M11.0996 8.50936L11.1018 9.011C11.119 11.0007 11.239 12.7759 11.4458 13.9009C11.4458 13.9211 11.6714 15.0369 11.8152 15.4083C12.0408 15.9451 12.4488 16.4008 12.9603 16.6895C13.3699 16.8954 13.7995 17 14.2492 17C14.6027 16.9836 15.1858 16.8057 15.6019 16.6566L15.9477 16.524C18.238 15.6143 22.6162 12.6415 24.293 10.8236L24.4166 10.6965L24.9684 10.1011C25.3161 9.6454 25.5 9.08831 25.5 8.48908C25.5 7.95227 25.3362 7.41546 25.0086 6.98164C24.9105 6.84109 24.7525 6.66078 24.6119 6.50843L24.0748 5.9463C22.2269 4.07393 18.2256 1.44759 16.1517 0.577382C16.1517 0.558656 14.8628 0.0202859 14.2492 -4.91787e-07L14.1673 -4.95367e-07C13.2261 -5.36507e-07 12.3468 0.536809 11.8971 1.40444C11.7742 1.64164 11.6564 2.10627 11.5667 2.51434L11.4056 3.28483C11.2217 4.52387 11.0996 6.42454 11.0996 8.50936ZM2.12961 6.34902C0.953535 6.34902 -3.19611e-07 7.31184 -3.7152e-07 8.49938C-4.23428e-07 9.68691 0.953535 10.6497 2.12961 10.6497L7.37018 10.1863C8.29281 10.1863 9.0408 9.43255 9.0408 8.49938C9.0408 7.56776 8.29281 6.81248 7.37018 6.81248L2.12961 6.34902Z" fill="white"/>
</svg>
