<svg width="23" height="24" viewBox="0 0 23 24" fill="none" xmlns="http://www.w3.org/2000/svg">
<path fill-rule="evenodd" clip-rule="evenodd" d="M16.7021 5.36402H16.9479C20.1783 5.36402 22.8001 8.06403 22.8001 11.376V18.0001C22.8001 21.3121 20.1783 24.0001 16.9479 24.0001H5.85218C2.62177 24.0001 0 21.3121 0 18.0001V11.376C0 8.06403 2.62177 5.36402 5.85218 5.36402H6.09797C6.12138 3.92401 6.67148 2.58001 7.66635 1.57201C8.67293 0.552002 9.9604 0.0360001 11.4117 0C14.3144 0 16.667 2.40001 16.7021 5.36402ZM8.89531 2.85601C8.23987 3.52801 7.87703 4.41602 7.85362 5.36402H14.9465C14.9113 3.39601 13.343 1.80001 11.4117 1.80001C10.5105 1.80001 9.57416 2.17201 8.89531 2.85601ZM15.8477 9.98404C16.3393 9.98404 16.7255 9.57603 16.7255 9.08403V7.69203C16.7255 7.20002 16.3393 6.79202 15.8477 6.79202C15.3678 6.79202 14.9699 7.20002 14.9699 7.69203V9.08403C14.9699 9.57603 15.3678 9.98404 15.8477 9.98404ZM7.72487 9.08403C7.72487 9.57603 7.33863 9.98403 6.84705 9.98403C6.36717 9.98403 5.96922 9.57603 5.96922 9.08403V7.69203C5.96922 7.20002 6.36717 6.79202 6.84705 6.79202C7.33863 6.79202 7.72487 7.20002 7.72487 7.69203V9.08403Z" fill="#BCBCBC"/>
</svg>
