<svg width="24" height="24" viewBox="0 0 24 24" fill="none" xmlns="http://www.w3.org/2000/svg">
<path fill-rule="evenodd" clip-rule="evenodd" d="M0 11.9999C0 5.37596 5.36396 0 11.9999 0C18.6239 0 23.9998 5.37596 23.9998 11.9999C23.9998 18.6359 18.6239 23.9998 11.9999 23.9998C5.36396 23.9998 0 18.6359 0 11.9999ZM14.6759 14.1959L16.6199 8.05194C16.7519 7.63195 16.3679 7.23595 15.9479 7.36795L9.80393 9.28794C9.55193 9.37193 9.34793 9.56393 9.27594 9.81593L7.35595 15.9719C7.22395 16.3799 7.61995 16.7759 8.02794 16.6439L14.1479 14.7239C14.3999 14.6519 14.6039 14.4479 14.6759 14.1959Z" fill="#BCBCBC"/>
</svg>
