<svg width="20" height="19" viewBox="0 0 20 19" fill="none" xmlns="http://www.w3.org/2000/svg">
<path d="M7.99118 15.3672H0.751106" stroke="white" stroke-width="1.5" stroke-linecap="round" stroke-linejoin="round"/>
<path fill-rule="evenodd" clip-rule="evenodd" d="M19.0007 15.367C19.0007 16.9589 17.7103 18.2494 16.1184 18.2494C14.5265 18.2494 13.236 16.9589 13.236 15.367C13.236 13.7739 14.5265 12.4846 16.1184 12.4846C17.7103 12.4846 19.0007 13.7739 19.0007 15.367Z" stroke="white" stroke-width="1.5" stroke-linecap="round" stroke-linejoin="round"/>
<path d="M11.7597 3.63297H19.0009" stroke="white" stroke-width="1.5" stroke-linecap="round" stroke-linejoin="round"/>
<path fill-rule="evenodd" clip-rule="evenodd" d="M0.750617 3.63299C0.750617 5.22606 2.04109 6.51536 3.63299 6.51536C5.22489 6.51536 6.51536 5.22606 6.51536 3.63299C6.51536 2.04109 5.22489 0.750617 3.63299 0.750617C2.04109 0.750617 0.750617 2.04109 0.750617 3.63299Z" stroke="white" stroke-width="1.5" stroke-linecap="round" stroke-linejoin="round"/>
</svg>
