<svg width="329" height="326" viewBox="0 0 329 326" fill="none" xmlns="http://www.w3.org/2000/svg">
<path opacity="0.18" d="M326.922 179.568C326.071 183.858 324.93 188.086 323.51 192.223C320.959 199.675 317.59 206.848 315.453 214.423C309.534 235.448 312.466 260.725 297.047 276.211C292.873 280.396 287.681 283.417 282.422 286.103C259.898 297.583 235.214 301.142 211.358 308.571C185.487 316.628 159.248 325.065 131.912 325.736C111.705 326.1 91.6446 322.233 73.02 314.384C54.3955 306.535 37.6183 294.878 23.7659 280.161C14.5346 270.214 6.60128 258.711 2.80805 245.675C1.3401 240.501 0.450694 235.179 0.156142 229.809C-0.582364 217.31 1.40936 204.52 3.80391 192.145C8.67133 166.98 15.7431 140.975 33.1987 122.211C48.9982 105.259 73.1116 94.0691 79.8812 71.858C82.8016 62.1791 81.8393 51.7169 84.2451 41.8814C89.3363 21.1361 109.153 6.46665 129.988 1.74469C157.816 -4.55499 184.078 7.03731 206.166 23.1725C230.078 40.561 258.935 48.9979 282.836 66.3192C317.535 91.5179 335.371 137.831 326.922 179.568Z" fill="#7EBAFF"/>
<path opacity="0.37" d="M326.923 179.568C326.071 183.858 324.93 188.086 323.51 192.223C320.959 199.675 317.591 206.848 315.453 214.423C309.534 235.448 312.466 260.725 297.047 276.211C292.873 280.396 287.681 283.417 282.422 286.103C259.898 297.583 235.214 301.141 211.358 308.571C185.488 316.628 159.248 325.064 131.912 325.736C111.705 326.099 91.6447 322.233 73.0201 314.384C54.3956 306.535 37.6184 294.878 23.7661 280.161C14.5348 270.214 6.60141 258.711 2.80818 245.675C1.34023 240.5 0.450822 235.179 0.156271 229.808C3.05173 228.592 5.84982 227.155 8.526 225.512C28.3538 212.879 44.019 192.022 68.0205 187.009C80.7541 184.346 93.9801 186.863 106.557 190.198C126.217 195.412 145.373 202.64 165.38 206.333C185.387 210.025 206.848 209.913 225.11 200.951C233.211 196.967 240.428 191.373 248.417 187.188C272.173 174.7 299.911 175.752 326.923 179.568Z" fill="#7EBAFF"/>
<path d="M121.976 245.205H121.786C113.953 244.545 106.299 243.381 98.4108 244.321C95.8596 244.623 93.1518 245.194 91.3727 247.04C89.5935 248.887 89.3809 252.411 91.5741 253.754L76.1326 263.992C74.3534 265.167 72.3841 266.655 72.2498 268.781C72.082 271.366 74.6667 273.257 77.0725 274.208C87.8703 278.617 100.156 276.234 111.391 273.089C122.625 269.945 134.128 266.018 145.686 267.584C150.061 268.177 154.302 269.542 158.689 270.158C163.492 270.669 168.332 270.721 173.145 270.314C194.797 269.195 216.907 267.931 237.004 259.83C240.334 258.569 243.503 256.92 246.448 254.918C248.502 253.388 250.45 251.721 252.277 249.927L258.991 243.706C260.793 242.027 262.583 240.349 264.295 238.581C271.186 231.5 276.622 223.136 280.296 213.964C281.079 212.028 281.739 209.735 280.643 207.967C280.05 207.116 279.254 206.427 278.326 205.964C271.095 201.75 262.697 199.984 254.381 200.928C251.046 201.224 247.812 202.223 244.892 203.86C242.395 205.541 240.077 207.476 237.977 209.634C220.701 225.791 198.042 234.654 175.965 243.202C169.095 245.843 161.866 248.54 154.571 247.6C149.379 246.94 144.5 244.456 139.364 243.717C133.199 242.788 127.94 245.63 121.976 245.205Z" fill="url(#paint0_linear_10_3144)"/>
<path d="M245.015 142.34C243.03 142.857 240.979 143.079 238.928 143.001C237.004 142.62 235.165 141.892 233.501 140.852C229.026 138.424 224.225 136.13 219.123 135.739C214.021 135.347 208.426 137.204 205.696 141.535C204.364 143.627 203.805 146.1 202.865 148.394C201.059 152.359 198.545 155.961 195.446 159.024C184.917 170.292 171.881 178.997 161.43 190.354C160.305 191.72 158.999 192.924 157.547 193.935C156.371 194.599 155.12 195.122 153.821 195.49C137.893 200.604 121.249 203.135 104.52 202.987C108.918 206.266 114.815 206.344 120.186 207.765C128.6 210.003 135.728 215.598 143.941 218.507C151.27 221.103 159.192 221.45 166.969 221.405C177.37 221.348 187.758 220.657 198.076 219.335C199.711 219.178 201.318 218.801 202.853 218.216C204.715 217.29 206.409 216.061 207.866 214.58C216.728 206.49 225.691 198.31 232.338 188.318C234.52 185.028 236.444 181.604 238.85 178.449C242.867 173.246 248.148 169.083 251.897 163.69C253.618 160.984 255.183 158.182 256.585 155.298C257.839 152.97 261.151 149.647 261.755 147.286C263.333 141.311 248.943 141.68 245.015 142.34Z" fill="#7EBAFF"/>
<path d="M211.716 194.181C211.923 193.456 212.368 192.821 212.98 192.38C213.695 192.107 214.476 192.06 215.218 192.246C218.131 192.657 221.098 192.116 223.677 190.701C224.954 189.986 226.066 189.01 226.943 187.839C227.82 186.667 228.442 185.325 228.769 183.898C228.959 182.936 229.004 181.951 229.283 181.023C229.844 179.671 230.598 178.409 231.521 177.274C233.716 174.095 235.176 170.468 235.796 166.655C236.4 163.008 236.288 159.046 238.336 155.969C239.052 154.906 240.003 154 240.663 152.892C241.036 152.364 241.265 151.748 241.328 151.105C241.391 150.461 241.285 149.812 241.021 149.222C240.665 148.641 240.183 148.148 239.611 147.779C236.001 145.23 231.72 143.801 227.303 143.672C226.688 143.627 226.069 143.696 225.479 143.874C224.662 144.235 223.958 144.811 223.442 145.541C220.5 149.155 218.843 153.631 216.438 157.614C211.134 166.431 202.328 172.731 197.114 181.593C195.552 184.376 194.234 187.289 193.175 190.299C191.442 195.042 190.051 199.903 189.012 204.845C188.865 205.43 188.801 206.033 188.822 206.635C189.054 207.891 189.744 209.015 190.758 209.791C192.802 211.543 195.3 212.68 197.964 213.069C200.37 213.36 201.746 211.816 203.201 210.07C207.039 205.393 209.467 199.743 211.716 194.181Z" fill="url(#paint1_linear_10_3144)"/>
<path d="M203.961 119.055C200.28 118.496 196.946 116.649 193.432 115.441C191.446 114.579 189.219 114.444 187.144 115.06C185.793 115.671 184.739 116.793 184.214 118.18C183.69 119.567 183.737 121.105 184.346 122.457L184.425 122.636C185.375 124.064 186.662 125.236 188.173 126.049C197.1 131.711 206.662 136.304 216.662 139.733C220.058 140.95 223.55 141.882 227.101 142.519C230.173 143.056 233.308 143.124 236.4 142.721C240.582 142.04 244.583 140.517 248.16 138.245C249.81 137.442 251.136 136.1 251.92 134.441C252.748 132.068 251.45 129.517 250.017 127.458C247.883 124.227 245.111 121.467 241.871 119.346C238.705 117.577 235.319 116.234 231.801 115.351C229.194 114.568 228.142 115.228 225.893 116.09C223.644 116.951 220.992 116.649 218.743 117.119C213.909 118.093 208.986 119.805 203.961 119.055Z" fill="#7EBAFF"/>
<path d="M203.961 119.055C200.28 118.496 196.946 116.649 193.432 115.441C191.446 114.579 189.219 114.444 187.144 115.06C185.793 115.671 184.739 116.793 184.214 118.18C183.69 119.567 183.737 121.105 184.346 122.457L184.425 122.636C185.375 124.064 186.662 125.236 188.173 126.049C197.1 131.711 206.662 136.304 216.662 139.733C220.058 140.95 223.55 141.882 227.101 142.519C230.173 143.056 233.308 143.124 236.4 142.721C240.582 142.04 244.583 140.517 248.16 138.245C249.81 137.442 251.136 136.1 251.92 134.441C252.748 132.068 251.45 129.517 250.017 127.458C247.883 124.227 245.111 121.467 241.871 119.346C238.705 117.577 235.319 116.234 231.801 115.351C229.194 114.568 228.142 115.228 225.893 116.09C223.644 116.951 220.992 116.649 218.743 117.119C213.909 118.093 208.986 119.805 203.961 119.055Z" fill="url(#paint2_linear_10_3144)"/>
<path d="M223.129 124.56C225.1 125.73 226.844 127.246 228.276 129.036C228.992 129.927 229.498 130.969 229.756 132.083C230.014 133.197 230.016 134.355 229.764 135.47C229.339 136.958 228.332 138.245 228.086 139.767C227.728 141.938 228.981 144.03 230.324 145.753C231.667 147.476 233.267 149.11 233.77 151.348C234.047 152.666 233.896 154.038 233.341 155.265C232.786 156.492 231.855 157.511 230.682 158.173C227.504 159.885 223.588 158.52 220.332 156.965C217.076 155.41 213.528 153.608 210.037 154.526C208.068 155.052 206.423 156.383 204.599 157.278C201.366 158.809 197.686 159.107 194.249 158.118C190.829 157.101 187.776 155.12 185.454 152.411C183.662 150.516 182.491 148.119 182.097 145.541C181.937 144.254 182.132 142.949 182.661 141.766C183.189 140.582 184.031 139.566 185.096 138.827C187.334 137.439 190.221 137.797 192.862 138.066C195.502 138.335 198.456 138.379 200.426 136.589C202.663 134.597 202.663 131.218 203.782 128.488C204.712 126.387 206.32 124.659 208.349 123.581C210.378 122.504 212.711 122.139 214.972 122.546C216.829 122.938 218.586 123.855 220.477 123.978C222.368 124.102 224.505 123.419 226.24 124.303" fill="#473F47"/>
<path d="M114.994 253.597L115.699 254.011C116.264 254.336 116.926 254.448 117.567 254.327C118.207 254.206 118.783 253.86 119.19 253.351L205.763 144.925C206.212 144.365 206.421 143.65 206.343 142.937C206.266 142.224 205.908 141.571 205.349 141.121C204.789 140.68 204.079 140.477 203.371 140.557C202.663 140.636 202.015 140.992 201.567 141.546L114.289 249.569C113.837 250.126 113.625 250.839 113.698 251.552C113.772 252.265 114.125 252.92 114.681 253.373C114.781 253.454 114.885 253.529 114.994 253.597Z" fill="#473F47"/>
<path d="M193.656 246.649L194.864 244.859C195.234 244.019 194.193 242.319 193.343 241.882L106.288 196.699C105.827 196.462 105.294 196.404 104.792 196.536C104.29 196.668 103.854 196.981 103.569 197.415L101.578 199.463C101.457 199.651 101.375 199.861 101.336 200.081C101.296 200.301 101.301 200.526 101.348 200.744C101.396 200.963 101.486 201.169 101.614 201.352C101.742 201.536 101.904 201.692 102.092 201.813L102.26 201.913L188.721 246.548C189.751 247.052 193.197 247.689 193.656 246.649Z" fill="#473F47"/>
<path d="M220.746 147.924C222.234 151.572 227.056 152.5 229.585 155.51C231.7 158.017 231.924 161.709 230.939 164.842C228.119 173.794 219.973 178.27 212.667 183.126C207.956 186.226 203.346 190.041 201.354 195.311C200.235 198.31 199.844 201.891 197.326 203.871C195.643 204.998 193.643 205.555 191.619 205.46C190.65 205.512 189.679 205.429 188.732 205.214C187.046 204.673 185.48 203.811 184.122 202.674L178.528 198.545C176.833 197.465 175.01 196.6 173.101 195.972C171.254 195.199 169.263 194.293 168.345 192.514C167.226 190.276 168.177 187.49 169.542 185.353C174.085 178.247 182.254 174.051 186.763 166.912C187.119 166.438 187.343 165.879 187.412 165.29C187.41 164.803 187.315 164.32 187.132 163.869C185.879 159.785 185.935 151.449 191.608 150.688C192.531 150.609 193.46 150.609 194.383 150.688C198.915 150.856 203.726 149.849 207.061 146.76C207.475 146.38 207.486 145.966 207.732 145.529C207.978 145.093 208.404 144.757 208.65 144.321C209.143 143.375 209.462 142.348 209.59 141.289C209.714 139.636 209.934 137.992 210.25 136.365C211.302 132.538 216.37 128.219 219.694 132.561C223.017 136.902 218.776 143.101 220.746 147.924Z" fill="#FFB79C"/>
<path d="M198.221 159.774C198.378 159.684 198.568 159.539 198.501 159.36C198.471 159.289 198.415 159.233 198.344 159.203C198.044 159.059 197.717 158.98 197.384 158.968C197.051 158.956 196.719 159.014 196.409 159.136C195.787 159.374 195.147 159.561 194.495 159.695C193.62 159.761 192.747 159.537 192.011 159.057C191.289 158.575 190.618 158.02 190.008 157.401C190.162 158.393 190.512 159.344 191.038 160.199C191.541 161.239 192.157 165.883 194.048 164.44C194.764 163.891 195.1 162.672 195.67 161.956C196.373 161.072 197.239 160.331 198.221 159.774Z" fill="#EA967D"/>
<path d="M190.68 186.562C188.744 186.651 186.741 186.942 184.917 186.315C184.189 186.037 183.492 185.685 182.836 185.264C179.078 182.981 175.505 180.407 172.15 177.565C173.996 176.368 176.458 176.636 178.416 175.641C178.959 175.268 179.566 174.999 180.206 174.846C181.178 174.897 182.098 175.294 182.802 175.965C184.384 177.07 186.179 177.833 188.073 178.203C187.528 177.069 187.093 175.885 186.775 174.667C186.494 173.758 186.429 172.797 186.584 171.859C186.809 171.133 187.206 170.473 187.742 169.935C188.278 169.397 188.937 168.997 189.661 168.77C191.112 168.336 192.624 168.143 194.137 168.2C194.896 168.132 195.659 168.232 196.375 168.491C196.99 168.822 197.524 169.285 197.942 169.844C200.977 173.482 204.568 176.617 208.583 179.132C209.14 179.409 209.653 179.767 210.105 180.195C210.332 180.409 210.501 180.678 210.597 180.975C210.693 181.272 210.712 181.589 210.653 181.896C210.53 182.237 210.344 182.552 210.105 182.824C208.784 184.525 207.509 186.259 206.144 187.938C204.958 189.392 204.253 189.706 202.541 188.967C198.819 187.28 194.764 186.458 190.68 186.562Z" fill="#EA967D"/>
<path d="M128.019 180.676L101.399 239.219L92.1565 249.513C92.1565 249.513 88.587 251.617 89.8402 252.87C91.0935 254.123 98.6687 254.75 99.5079 254.649C100.347 254.548 106.859 256.328 108.325 254.023C109.791 251.718 109.556 251.08 109.556 251.08C109.556 251.08 110.429 240.26 111.055 238.693C111.682 237.126 119.157 222.233 125.814 216.236C132.472 210.238 137.944 198.937 137.944 198.937C137.944 198.937 173.996 210.675 187.088 209.791C200.18 208.907 201.634 196.52 193.802 192.111C187.871 188.754 154.639 179.534 139.175 175.327C136.983 174.753 134.659 174.976 132.616 175.955C130.573 176.935 128.944 178.607 128.019 180.676Z" fill="#EA967D"/>
<path d="M209.198 140.114C209.198 140.114 206.837 146.962 209.668 147.275C212.499 147.588 221.16 136.32 221.014 134.161C220.869 132.001 209.198 140.114 209.198 140.114Z" fill="#EA967D"/>
<path d="M211.369 142.184L211.783 142.027C213.361 141.412 213.943 140.192 215.14 139.107C216.337 138.021 217.702 137.361 218.899 136.444C219.789 135.854 220.528 135.065 221.059 134.139C221.557 134.411 222.13 134.516 222.692 134.437C223.255 134.359 223.777 134.101 224.181 133.702C224.617 133.381 224.971 132.961 225.215 132.477C225.458 131.993 225.583 131.458 225.58 130.916C225.548 130.398 225.312 129.914 224.924 129.57C224.536 129.226 224.027 129.05 223.51 129.081H223.342C223.509 127.431 223.275 125.765 222.659 124.225C222.241 123.405 221.649 122.687 220.925 122.121C219.55 121.059 217.968 120.296 216.281 119.883C215.329 119.574 214.324 119.464 213.327 119.559C211.625 119.971 209.995 120.639 208.493 121.539C206.938 122.39 206.099 124.37 205.383 125.903C203.447 130.027 202.651 134.594 203.078 139.129C203.092 139.993 203.378 140.831 203.894 141.524C204.709 142.217 205.758 142.573 206.826 142.52C208.348 142.683 209.887 142.569 211.369 142.184Z" fill="#FFB79C"/>
<path d="M214.804 126.675C216.105 127.168 217.44 127.565 218.799 127.861L218.653 127.324C219.119 127.505 219.539 127.788 219.882 128.152C220.224 128.516 220.481 128.952 220.634 129.428C220.793 130.292 220.879 131.167 220.891 132.046C221.409 131.609 221.881 131.122 222.301 130.591C222.577 130.195 222.913 129.843 223.297 129.551C223.491 129.404 223.724 129.317 223.966 129.301C224.209 129.285 224.451 129.341 224.662 129.461C224.704 127.972 224.519 126.486 224.114 125.052C223.71 123.607 222.87 122.321 221.708 121.371C220.329 120.46 218.82 119.762 217.232 119.301C216.547 119.167 215.85 119.1 215.151 119.1C214.095 118.999 213.03 119.067 211.996 119.301C211.356 119.505 210.738 119.771 210.149 120.096C209.579 120.398 207.912 120.901 207.912 121.752C207.912 122.602 209.321 123.352 209.836 123.777C211.325 125.004 213.003 125.983 214.804 126.675Z" fill="#473F47"/>
<path d="M181.728 185.823C178.744 184.189 175.794 182.533 172.877 180.855C165.201 176.491 157.48 172.194 149.636 168.155C146.212 166.387 142.766 164.652 139.23 163.131C137.563 162.415 135.213 161.105 133.311 161.318H133.154C128.746 162.582 90.9364 220.231 90.9364 220.231C90.9364 220.231 73.4584 230.782 70.6163 228.891C69.6988 228.992 69.419 228.142 68.6917 227.582C67.9644 227.023 66.8231 226.62 66.2077 227.314C65.5922 228.007 66.2077 229.182 66.879 229.854C67.9387 230.895 69.1834 231.73 70.5492 232.315C70.8576 232.413 71.1277 232.604 71.3212 232.864C71.4209 233.046 71.4783 233.249 71.4891 233.457C71.6814 234.104 72.0466 234.687 72.5454 235.142C73.0442 235.598 73.6578 235.909 74.32 236.041C75.6543 236.254 77.0139 236.254 78.3482 236.041C82.3784 235.698 86.434 235.792 90.4441 236.321C91.4323 236.511 92.4441 236.545 93.4428 236.422C94.2527 236.23 95.0083 235.857 95.6521 235.329C96.2958 234.802 96.8108 234.135 97.1578 233.378C97.8417 231.858 98.1634 230.199 98.0977 228.533C97.9511 226.892 98.0644 225.238 98.4334 223.632C98.4334 223.632 128.958 197.505 130.637 189.527C131.322 185.704 132.375 181.957 133.781 178.337C138.201 182.813 142.822 187.289 147.555 191.44C151.258 194.797 155.135 197.957 159.17 200.906C160.889 202.154 162.678 203.301 164.53 204.342C166.162 205.358 168.045 205.896 169.968 205.897C175.148 205.897 179.803 208.963 184.928 209.377C186.12 209.466 187.317 209.466 188.509 209.377C189.765 209.344 191.008 209.11 192.19 208.683C195.01 207.564 196.576 204.532 197.908 201.768C198.657 200.522 199.044 199.093 199.027 197.639C198.84 196.367 198.186 195.21 197.192 194.394C196.22 193.579 195.149 192.89 194.003 192.346C189.863 190.235 185.771 188.061 181.728 185.823Z" fill="#FFB79C"/>
<path d="M177.252 253.597L177.957 254.011C178.522 254.336 179.184 254.448 179.824 254.327C180.464 254.206 181.04 253.86 181.448 253.351L268.01 144.925C268.234 144.649 268.402 144.332 268.503 143.991C268.604 143.65 268.637 143.293 268.6 142.939C268.562 142.585 268.455 142.243 268.285 141.931C268.114 141.619 267.884 141.343 267.607 141.121C267.045 140.679 266.333 140.476 265.623 140.556C264.913 140.635 264.263 140.991 263.813 141.546L176.502 249.603C176.278 249.881 176.112 250.2 176.013 250.543C175.913 250.885 175.882 251.244 175.922 251.599C175.961 251.953 176.07 252.297 176.243 252.609C176.415 252.921 176.648 253.196 176.927 253.418C177.03 253.487 177.139 253.547 177.252 253.597Z" fill="#473F47"/>
<path d="M217.758 156.316C217.073 157.774 216.167 159.118 215.073 160.3C214.605 160.809 214.062 161.243 213.461 161.586C212.854 161.883 212.221 162.122 211.57 162.302C210.72 162.582 209.881 162.918 209.03 163.209C204.111 164.913 198.865 165.456 193.701 164.798C193.527 164.795 193.359 164.739 193.218 164.637C193.078 164.535 192.973 164.391 192.918 164.227C190.87 159.941 188.8 155.432 189.035 150.688C188.186 151.118 187.496 151.808 187.065 152.657C185.956 154.922 185.298 157.381 185.13 159.897C184.952 160.697 185.006 161.532 185.286 162.302C185.598 163.079 185.845 163.88 186.025 164.697C186.347 165.615 186.82 166.473 187.423 167.237C188.721 168.848 191.027 169.934 192.884 169.05C193.736 170.381 194.852 171.523 196.162 172.407C198.823 174.165 201.725 175.526 204.778 176.446C207.643 177.487 210.63 177.352 213.629 177.979C215.979 178.471 218.418 179.277 220.723 178.606C221.328 178.427 222.01 177.766 221.596 177.285C221.453 177.148 221.275 177.051 221.081 177.005C219.756 176.54 218.591 175.705 217.725 174.6C215.129 171.243 215.33 164.977 216.706 161.172C218.251 156.887 221.563 153.194 221.909 148.506C221.909 148.114 221.641 146.481 220.947 146.928C220.69 147.096 220.612 148.618 220.511 148.987C220.298 149.748 220.041 150.486 219.783 151.225C219.214 152.962 218.538 154.663 217.758 156.316Z" fill="#7EBAFF"/>
<path d="M173.537 181.28C173.537 181.28 186.909 193.029 201.354 195.311L202.473 193.073C202.473 193.073 177.543 184.637 175.898 178.225L173.537 181.28Z" fill="#7EBAFF"/>
<path d="M128.019 180.676L101.399 239.219L92.1565 249.513C92.1565 249.513 88.587 251.617 89.8402 252.87C91.0935 254.123 98.6687 254.75 99.5079 254.649C100.347 254.549 106.859 256.328 108.325 254.023C109.791 251.718 109.556 251.08 109.556 251.08C109.556 251.08 110.429 240.26 111.055 238.693C111.682 237.127 119.157 222.233 125.814 216.236C132.472 210.238 137.944 198.937 137.944 198.937C137.944 198.937 174.108 209.063 187.178 208.179C200.247 207.295 171.277 208.336 163.501 203.916C157.57 200.559 148.104 188.911 135.93 177.722C132.495 174.633 129.91 176.401 128.019 180.676Z" fill="#EA967D"/>
<path d="M151.237 205.169C147.276 205.169 143.303 204.554 139.353 204.957C135.404 205.359 131.375 206.892 129.026 210.126L132.382 212.129C138.346 215.698 144.478 219.335 151.315 220.588C153.94 221.005 156.591 221.245 159.248 221.304C173.134 221.897 187.312 222.423 200.649 218.597C199.967 218.787 195.771 215.061 195.055 214.546C193.13 213.259 191.161 212.028 189.158 210.876C185.147 208.555 180.982 206.51 176.693 204.755C173.101 203.278 169.308 201.197 165.447 202.45C160.602 204.005 156.395 205.248 151.237 205.169Z" fill="#7EBAFF"/>
<path d="M151.237 205.169C147.276 205.169 143.303 204.554 139.353 204.957C135.404 205.359 131.375 206.892 129.026 210.126L132.382 212.129C138.346 215.698 144.478 219.335 151.315 220.588C153.94 221.005 156.591 221.245 159.248 221.304C173.134 221.897 187.312 222.423 200.649 218.597C199.967 218.787 195.771 215.061 195.055 214.546C193.13 213.259 191.161 212.028 189.158 210.876C185.147 208.555 180.982 206.51 176.693 204.755C173.101 203.278 169.308 201.197 165.447 202.45C160.602 204.005 156.395 205.248 151.237 205.169Z" fill="url(#paint3_linear_10_3144)"/>
<path d="M255.881 246.649L257.089 244.859C257.458 244.019 256.418 242.319 255.567 241.882L168.502 196.699C168.04 196.464 167.507 196.408 167.006 196.54C166.505 196.672 166.07 196.983 165.783 197.415L163.825 199.429C163.586 199.814 163.508 200.278 163.609 200.72C163.709 201.162 163.98 201.546 164.362 201.79L164.518 201.88L251.024 246.515C251.975 247.052 255.411 247.69 255.881 246.649Z" fill="#473F47"/>
<path d="M204.443 131.99C205.957 131.99 207.184 130.763 207.184 129.249C207.184 127.735 205.957 126.507 204.443 126.507C202.929 126.507 201.701 127.735 201.701 129.249C201.701 130.763 202.929 131.99 204.443 131.99Z" fill="#473F47"/>
<path d="M213.751 131.192C213.993 129.697 212.978 128.289 211.484 128.046C209.989 127.804 208.581 128.819 208.339 130.313C208.096 131.808 209.111 133.216 210.605 133.458C212.1 133.701 213.508 132.686 213.751 131.192Z" fill="#473F47"/>
<path d="M192.034 165.044C192.034 169.05 190.442 172.892 187.609 175.725C184.776 178.558 180.934 180.15 176.928 180.15C172.921 180.15 169.079 178.558 166.246 175.725C163.413 172.892 161.822 169.05 161.822 165.044V164.182C162.861 164.927 164.072 165.397 165.341 165.55C166.61 165.703 167.898 165.532 169.084 165.055C169.339 164.91 169.631 164.844 169.923 164.865C170.172 164.939 170.399 165.074 170.583 165.256C171.543 166.024 172.768 166.381 173.99 166.249C175.213 166.117 176.333 165.507 177.107 164.552C177.246 164.374 177.373 164.187 177.487 163.992C179.445 165.111 181.739 166.375 183.888 165.615C184.17 165.52 184.44 165.392 184.693 165.234C185.382 164.783 186.017 164.253 186.584 163.656C186.931 164.44 187.972 164.574 188.822 164.473C189.913 164.338 190.969 163.996 191.933 163.466C192 163.989 192.034 164.516 192.034 165.044Z" fill="#7EBAFF"/>
<path d="M191.955 163.444C190.992 163.973 189.936 164.315 188.845 164.451C187.994 164.551 186.954 164.451 186.607 163.634C185.859 164.472 184.939 165.14 183.91 165.592C181.762 166.353 179.434 165.133 177.51 163.97C176.889 165.028 175.873 165.797 174.686 166.108C173.498 166.418 172.236 166.245 171.176 165.626C170.978 165.508 170.787 165.377 170.606 165.234C170.421 165.051 170.194 164.917 169.946 164.842C169.653 164.821 169.361 164.887 169.106 165.033C167.92 165.51 166.633 165.68 165.363 165.528C164.094 165.375 162.884 164.905 161.844 164.16L167.081 155.712H185.779L191.955 163.444Z" fill="white"/>
<path opacity="0.18" d="M167.103 155.734H172.407L169.968 164.865C169.675 164.844 169.383 164.91 169.128 165.055C167.942 165.532 166.655 165.703 165.385 165.55C164.116 165.397 162.906 164.927 161.866 164.182L167.103 155.734Z" fill="white"/>
<path opacity="0.18" d="M191.955 163.444C190.991 163.973 189.936 164.315 188.845 164.451C187.994 164.551 186.953 164.451 186.607 163.634C185.859 164.472 184.939 165.14 183.91 165.592C181.762 166.353 179.434 165.133 177.51 163.97L176.234 155.712H185.779L191.955 163.444Z" fill="white"/>
<path opacity="0.34" d="M177.51 163.992C176.889 165.051 175.873 165.82 174.686 166.13C173.498 166.441 172.236 166.267 171.176 165.648C170.978 165.53 170.787 165.4 170.606 165.256C170.421 165.074 170.194 164.939 169.946 164.865L172.385 155.734H176.234L177.51 163.992Z" fill="#7EBAFF"/>
<path d="M176.558 157.043C181.768 157.043 185.991 156.487 185.991 155.801C185.991 155.115 181.768 154.559 176.558 154.559C171.349 154.559 167.125 155.115 167.125 155.801C167.125 156.487 171.349 157.043 176.558 157.043Z" fill="#7EBAFF"/>
<path d="M176.558 156.82C180.828 156.82 184.29 156.364 184.29 155.802C184.29 155.239 180.828 154.783 176.558 154.783C172.288 154.783 168.826 155.239 168.826 155.802C168.826 156.364 172.288 156.82 176.558 156.82Z" fill="url(#paint4_linear_10_3144)"/>
<path opacity="0.13" d="M183.127 156.73L186.607 163.69C186.607 163.69 187.48 165.402 190.646 164.082L184.738 156.451L183.127 156.73Z" fill="#7EBAFF"/>
<path d="M174.813 156.797L172.396 147.823L166.376 145.496L165.906 146.223L171.568 148.461L173.906 156.764L174.813 156.797Z" fill="#7EBAFF"/>
<path d="M192.033 165.044C192.033 169.05 190.442 172.892 187.609 175.725C184.776 178.558 180.934 180.15 176.927 180.15C183.831 179.657 184.76 165.234 184.76 165.234C185.449 164.783 186.083 164.253 186.651 163.656C186.998 164.44 188.039 164.574 188.889 164.473C189.98 164.338 191.036 163.996 192 163.466C192 163.981 192.033 164.563 192.033 165.044Z" fill="url(#paint5_linear_10_3144)"/>
<path d="M180.206 152.97L179.747 154.112L178.662 156.797H178.315L179.49 153.821L179.937 152.702L179.993 152.534L180.072 152.691L180.206 152.97Z" fill="white"/>
<path d="M180.195 152.97L179.736 154.089C179.667 154.036 179.604 153.976 179.546 153.91L179.479 153.799L179.926 152.68H180.06L180.195 152.97Z" fill="url(#paint6_linear_10_3144)"/>
<path d="M183.82 153.474C183.821 153.497 183.815 153.52 183.803 153.54C183.791 153.559 183.774 153.576 183.753 153.586C183.562 153.754 183.338 153.881 183.095 153.958C182.853 154.035 182.597 154.061 182.343 154.034C182.173 154.028 182.008 153.98 181.861 153.894C181.715 153.808 181.592 153.687 181.504 153.541C181.355 153.651 181.18 153.721 180.997 153.747C180.813 153.772 180.626 153.751 180.452 153.687C180.28 153.625 180.123 153.525 179.993 153.396C179.864 153.266 179.764 153.11 179.703 152.937C179.296 153.06 178.866 153.083 178.449 153.004C178.242 152.956 178.06 152.834 177.936 152.661C177.812 152.488 177.756 152.276 177.778 152.064C177.647 152.091 177.511 152.086 177.383 152.049C177.254 152.012 177.136 151.944 177.04 151.852C176.849 151.65 176.872 151.449 176.805 151.203C176.81 151.19 176.812 151.177 176.812 151.163C176.812 151.15 176.81 151.137 176.805 151.124C176.7 150.951 176.625 150.762 176.581 150.565C176.58 150.327 176.625 150.091 176.715 149.871C178.427 150.069 180.155 150.099 181.873 149.961H182.019C182.041 149.972 182.06 149.988 182.075 150.007C182.091 150.026 182.102 150.049 182.108 150.073L182.612 151.057C183.003 151.818 183.395 152.579 183.798 153.295C183.809 153.373 183.887 153.441 183.82 153.474Z" fill="white"/>
<path d="M181.873 150.016L177.23 151.068L176.782 151.18C176.678 151.007 176.602 150.818 176.558 150.621C176.557 150.383 176.603 150.147 176.693 149.927C178.405 150.124 180.133 150.154 181.851 150.016H181.873Z" fill="#7EBAFF"/>
<path d="M177.778 152.064L181.873 150.017H182.019L179.703 152.971C179.703 152.971 177.745 153.485 177.778 152.064Z" fill="#7EBAFF"/>
<path d="M181.504 153.541L182.018 149.983L183.82 153.474C183.515 153.778 183.106 153.955 182.675 153.967C182.245 153.98 181.826 153.827 181.504 153.541Z" fill="#7EBAFF"/>
<path d="M230.783 182.522C230.403 184.704 229.832 187.065 228.097 188.452C226.106 190.053 223.286 189.873 220.746 189.571C217.073 189.258 213.419 188.742 209.803 188.027C204.924 186.964 200.404 184.67 195.704 182.88C194.719 182.475 193.705 182.142 192.672 181.884C188.196 180.832 183.239 182.175 178.92 180.508C178.264 180.305 177.656 179.969 177.137 179.52C176.617 179.072 176.195 178.52 175.899 177.901C175.784 177.418 175.6 176.954 175.35 176.524C174.791 175.752 173.437 175.405 173.549 174.443C173.588 174.212 173.699 174 173.865 173.835C174.032 173.67 174.246 173.562 174.477 173.526C174.941 173.454 175.415 173.485 175.865 173.615L181.706 174.734C182.457 174.935 183.242 174.977 184.011 174.857C184.392 174.787 184.741 174.599 185.01 174.32C185.279 174.041 185.454 173.685 185.51 173.302C185.51 172.843 185.331 172.407 185.32 171.937C185.309 171.467 185.678 170.952 186.126 171.064C186.31 171.125 186.47 171.243 186.585 171.4C187.194 172.101 187.848 172.762 188.543 173.38C190.554 174.979 192.95 176.021 195.491 176.401C199.844 177.185 204.353 176.838 208.751 177.241L222.503 178.505C222.715 178.556 222.936 178.56 223.151 178.517C223.365 178.475 223.568 178.387 223.745 178.259C223.978 177.973 224.091 177.608 224.058 177.241C224.125 173.884 222.693 170.773 221.82 167.573C220.947 164.373 220.623 160.725 222.727 158.028C224.349 155.947 228.388 153.799 230.559 156.216C232.73 158.632 232.003 165.682 232.003 168.625C232.016 173.284 231.608 177.936 230.783 182.522Z" fill="#FFB79C"/>
<path d="M246.548 123.162C244.073 121.36 241.223 120.138 238.211 119.588C235.199 119.038 232.101 119.173 229.149 119.984C225.322 121.103 221.887 123.117 217.959 124.068C214.256 124.975 210.059 123.296 206.557 122.144C201.965 120.786 197.52 118.976 193.286 116.739C191.586 115.754 189.829 114.591 187.86 114.669C194.126 114.423 200.429 114.374 206.77 114.524C207.68 114.587 208.593 114.484 209.466 114.221C209.788 114.114 210.085 113.943 210.339 113.718C211.313 112.879 211.458 111.48 211.973 110.272C212.238 109.606 212.596 108.98 213.036 108.414C214.287 106.871 216.008 105.778 217.937 105.303C220.586 104.74 223.344 105.005 225.837 106.064C228.099 106.882 230.053 108.379 231.431 110.35C231.721 110.763 231.958 111.21 232.136 111.681C232.651 112.912 232.797 115.161 233.938 115.989C234.17 116.05 234.398 116.125 234.62 116.213C236.892 116.817 242.587 118.529 246.548 123.162Z" fill="#7EBAFF"/>
<path opacity="0.51" d="M234.24 116.135C231.983 116.807 229.634 117.12 227.28 117.063C222.828 117.368 218.355 117.116 213.965 116.314C212.6 116.012 209.802 115.687 209.489 114.232C209.811 114.125 210.108 113.954 210.362 113.729C211.335 112.89 211.481 111.491 211.995 110.283C212.278 109.613 212.655 108.988 213.114 108.425C214.569 108.772 215.956 109.331 217.389 109.723C221.204 110.753 225.221 110.607 229.182 110.45L231.555 110.361C231.844 110.774 232.081 111.221 232.26 111.692C232.774 112.923 232.92 115.172 234.061 116C234.117 116.05 234.177 116.095 234.24 116.135Z" fill="white"/>
<defs>
<linearGradient id="paint0_linear_10_3144" x1="132.763" y1="-5.22653" x2="250.297" y2="648.866" gradientUnits="userSpaceOnUse">
<stop offset="0.01"/>
<stop offset="0.13" stop-opacity="0.69"/>
<stop offset="0.25" stop-opacity="0.32"/>
<stop offset="1" stop-opacity="0"/>
</linearGradient>
<linearGradient id="paint1_linear_10_3144" x1="11017.3" y1="12552.9" x2="19037.5" y2="9633.42" gradientUnits="userSpaceOnUse">
<stop offset="0.01"/>
<stop offset="0.13" stop-opacity="0.69"/>
<stop offset="0.25" stop-opacity="0.32"/>
<stop offset="1" stop-opacity="0"/>
</linearGradient>
<linearGradient id="paint2_linear_10_3144" x1="17712.9" y1="6790.47" x2="17755.8" y2="3106.73" gradientUnits="userSpaceOnUse">
<stop offset="0.01"/>
<stop offset="0.13" stop-opacity="0.69"/>
<stop offset="0.25" stop-opacity="0.32"/>
<stop offset="1" stop-opacity="0"/>
</linearGradient>
<linearGradient id="paint3_linear_10_3144" x1="12710.5" y1="3154.86" x2="14151.7" y2="-937.413" gradientUnits="userSpaceOnUse">
<stop offset="0.01"/>
<stop offset="0.13" stop-opacity="0.69"/>
<stop offset="0.25" stop-opacity="0.32"/>
<stop offset="1" stop-opacity="0"/>
</linearGradient>
<linearGradient id="paint4_linear_10_3144" x1="3504" y1="-169.415" x2="3504.29" y2="-128.065" gradientUnits="userSpaceOnUse">
<stop offset="0.01"/>
<stop offset="0.13" stop-opacity="0.69"/>
<stop offset="0.25" stop-opacity="0.32"/>
<stop offset="1" stop-opacity="0"/>
</linearGradient>
<linearGradient id="paint5_linear_10_3144" x1="4007.61" y1="2787.28" x2="3035.39" y2="2930.88" gradientUnits="userSpaceOnUse">
<stop offset="0.01"/>
<stop offset="0.13" stop-opacity="0.69"/>
<stop offset="0.25" stop-opacity="0.32"/>
<stop offset="1" stop-opacity="0"/>
</linearGradient>
<linearGradient id="paint6_linear_10_3144" x1="339.612" y1="405.977" x2="338.051" y2="400" gradientUnits="userSpaceOnUse">
<stop offset="0.01"/>
<stop offset="0.13" stop-opacity="0.69"/>
<stop offset="0.25" stop-opacity="0.32"/>
<stop offset="1" stop-opacity="0"/>
</linearGradient>
</defs>
</svg>
