<svg width="14" height="13" viewBox="0 0 14 13" fill="none" xmlns="http://www.w3.org/2000/svg">
<path fill-rule="evenodd" clip-rule="evenodd" d="M9.47627 0.000109249C9.908 0.000109249 10.339 0.0610036 10.7489 0.198529C13.2743 1.01958 14.1843 3.79061 13.4241 6.2127C12.9931 7.45043 12.2884 8.58006 11.3654 9.50305C10.0442 10.7825 8.59432 11.9183 7.03365 12.8967L6.8626 13L6.68471 12.8899C5.11856 11.9183 3.66051 10.7825 2.327 9.49621C1.41016 8.57321 0.704744 7.45043 0.266852 6.2127C-0.506301 3.79061 0.403693 1.01958 2.95647 0.184161C3.15489 0.11574 3.35946 0.0678457 3.56473 0.0411616H3.64683C3.83909 0.0131092 4.02999 0.000109249 4.22156 0.000109249H4.29683C4.72788 0.0131092 5.14524 0.0883718 5.54961 0.225897H5.58998C5.61734 0.238897 5.63787 0.253266 5.65155 0.266265C5.80276 0.314844 5.94576 0.369581 6.0826 0.444843L6.3426 0.561158C6.40543 0.594665 6.47595 0.645863 6.53689 0.690111C6.5755 0.718146 6.61027 0.743391 6.63681 0.759578C6.64798 0.766166 6.65933 0.772791 6.67077 0.779469C6.72943 0.813715 6.79054 0.849387 6.84207 0.888893C7.60223 0.308002 8.52522 -0.00673281 9.47627 0.000109249ZM11.2963 4.92639C11.5768 4.91887 11.8163 4.69376 11.8368 4.40571V4.32429C11.8573 3.36572 11.2764 2.49746 10.3931 2.1622C10.1126 2.06573 9.80469 2.21694 9.70205 2.5043C9.60627 2.79167 9.75679 3.10641 10.0442 3.20835C10.4827 3.37256 10.7763 3.8043 10.7763 4.28256V4.30377C10.7633 4.46045 10.8105 4.61166 10.9063 4.72797C11.002 4.84429 11.1457 4.91203 11.2963 4.92639Z" fill="white"/>
</svg>
