<svg width="23" height="24" viewBox="0 0 23 24" fill="none" xmlns="http://www.w3.org/2000/svg">
<path d="M7.96176 22.5281V18.8588C7.96176 17.9221 8.72664 17.1628 9.67016 17.1628H13.1192C13.5723 17.1628 14.0068 17.3415 14.3272 17.6596C14.6476 17.9776 14.8276 18.409 14.8276 18.8588V22.5281C14.8247 22.9175 14.9785 23.2919 15.2549 23.5683C15.5313 23.8447 15.9073 24.0001 16.2996 24.0001H18.6527C19.7516 24.0029 20.8066 23.5715 21.5847 22.801C22.3628 22.0306 22.8001 20.9845 22.8001 19.8935V9.44026C22.8 8.55898 22.4066 7.72304 21.7256 7.15763L13.7209 0.811046C12.3284 -0.301727 10.3334 -0.265798 8.9825 0.896378L1.16042 7.15763C0.44729 7.70637 0.0210628 8.54479 0 9.44026V19.8828C0 22.1567 1.85686 24.0001 4.14742 24.0001H6.44677C7.2615 24.0001 7.92362 23.3475 7.92953 22.5388L7.96176 22.5281Z" fill="#0373F3"/>
</svg>
