<svg width="19" height="22" viewBox="0 0 19 22" fill="none" xmlns="http://www.w3.org/2000/svg">
<path fill-rule="evenodd" clip-rule="evenodd" d="M0 9.1495C0 4.08967 4.22825 0 9.34276 0C14.4717 0 18.6999 4.08967 18.6999 9.1495C18.6999 11.6992 17.7726 14.0663 16.2464 16.0727C14.5626 18.2858 12.4873 20.214 10.1514 21.7276C9.61673 22.0774 9.13423 22.1038 8.54746 21.7276C6.19819 20.214 4.12288 18.2858 2.45354 16.0727C0.926178 14.0663 0 11.6992 0 9.1495ZM6.26363 9.43439C6.26363 11.1294 7.6468 12.4626 9.34276 12.4626C11.0398 12.4626 12.4363 11.1294 12.4363 9.43439C12.4363 7.75255 11.0398 6.35449 9.34276 6.35449C7.6468 6.35449 6.26363 7.75255 6.26363 9.43439Z" fill="#0373F3"/>
</svg>
