<svg width="16" height="8" viewBox="0 0 16 8" fill="none" xmlns="http://www.w3.org/2000/svg">
<path fill-rule="evenodd" clip-rule="evenodd" d="M0.779909 3.65476C0.778685 3.33459 0.85029 3.01833 0.989308 2.72991C1.42556 1.85742 2.65578 1.39499 3.6766 1.18559C4.41281 1.02849 5.1592 0.923525 5.91019 0.871495C7.3006 0.749359 8.69904 0.749359 10.0895 0.871495C10.8404 0.924124 11.5867 1.02908 12.323 1.18559C13.3439 1.39499 14.5741 1.81379 15.0103 2.72991C15.2899 3.31784 15.2899 4.0004 15.0103 4.58833C14.5741 5.50445 13.3439 5.92325 12.323 6.12393C11.5877 6.28754 10.841 6.39546 10.0895 6.44675C8.95777 6.54269 7.82081 6.56018 6.68671 6.4991C6.42496 6.4991 6.17194 6.4991 5.91019 6.44675C5.16142 6.39609 4.41762 6.28817 3.68532 6.12393C2.65578 5.92325 1.43428 5.50445 0.989308 4.58833C0.851001 4.29657 0.779466 3.97765 0.779909 3.65476Z" stroke="#C5C5C5" stroke-width="1.5" stroke-linecap="round" stroke-linejoin="round"/>
</svg>
