<svg width="12" height="12" viewBox="0 0 12 12" fill="none" xmlns="http://www.w3.org/2000/svg">
<path d="M9.55026 7.09121C9.39488 7.24179 9.32348 7.45957 9.35888 7.67314L9.89222 10.6248C9.93722 10.875 9.83163 11.1282 9.62225 11.2727C9.41707 11.4227 9.1441 11.4407 8.92033 11.3207L6.26323 9.93489C6.17084 9.8857 6.06825 9.8593 5.96326 9.8563H5.80068C5.74428 9.8647 5.68909 9.8827 5.6387 9.91029L2.98099 11.3027C2.84961 11.3687 2.70082 11.3921 2.55504 11.3687C2.19988 11.3015 1.96291 10.9632 2.0211 10.6062L2.55504 7.65454C2.59044 7.43917 2.51904 7.22019 2.36366 7.06721L0.197303 4.96744C0.0161237 4.79166 -0.0468693 4.52769 0.0359215 4.28952C0.116313 4.05195 0.32149 3.87857 0.569262 3.83957L3.55093 3.40702C3.7777 3.38362 3.97688 3.24564 4.07887 3.04166L5.39272 0.347961C5.42392 0.287968 5.46412 0.232774 5.51271 0.185979L5.5667 0.143984C5.5949 0.112787 5.6273 0.0869903 5.66329 0.0659926L5.72869 0.0419953L5.83067 0H6.08325C6.30882 0.0233974 6.5074 0.158382 6.61119 0.35996L7.94244 3.04166C8.03843 3.23784 8.22501 3.37402 8.44038 3.40702L11.4221 3.83957C11.674 3.87557 11.8846 4.04955 11.968 4.28952C12.0466 4.53009 11.9788 4.79406 11.794 4.96744L9.55026 7.09121Z" fill="#200E32"/>
</svg>
